<?xml version="1.0" encoding="UTF-8" standalone="no"?>
<!-- Created with Inkscape (http://www.inkscape.org/) -->
<svg id="svg2" xmlns:rdf="http://www.w3.org/1999/02/22-rdf-syntax-ns#" xmlns="http://www.w3.org/2000/svg" height="100%" width="100%" version="1.1" xmlns:cc="http://creativecommons.org/ns#" xmlns:xlink="http://www.w3.org/1999/xlink" viewBox="0 0 1920 900" xmlns:dc="http://purl.org/dc/elements/1.1/">
 <metadata id="metadata7">
  <rdf:RDF>
   <cc:Work rdf:about="">
    <dc:format>image/svg+xml</dc:format>
    <dc:type rdf:resource="http://purl.org/dc/dcmitype/StillImage"/>
    <dc:title/>
   </cc:Work>
  </rdf:RDF>
 </metadata>
 <g id="layer2">
  <g stroke="#E74C3C" stroke-width="10" fill="none">
   <path id="path1" d="m1213.5 198.99 38.824 516.47-2.3529 30.588h-524.71s-32.941 1.1765-32.941 24.706c0 23.529 33.428 27.059 33.428 27.059h31.277v-28.235h88.235v109.41l-43.529-36.471-43.529 32.941v-52.941h-50.588s-58.824-8.2353-58.824-50.588 1.1765-62.353 1.1765-62.353l36.471-474.12s11.765-34.118 43.529-34.118h71.765z"/>
   <path id="path2" d="m1245.3 798.99-2.3529 23.529h-370.59v-24.706z"/>
   <path id="path3" d="m776.99 373.73-6.6551 138.09s0 13.31 15.806 13.31h16.638 339.41s13.726-3.3276 13.726-13.726v-9.5667l-7.903-128.11s-2.4957-13.31-15.806-13.31h-14.142l-328.6-0.83189s-12.478-0.83189-12.478 14.142z"/>
  </g>
  <path id="fill1" d="m833.82 865.84c-3.7549-3.394-12.459-10.825-19.342-16.513l-12.514-10.342-19.757 14.813-19.757 14.813-0.83189-24.437-0.83189-24.437-31.612-0.94001c-32.241-0.95868-36.091-1.6021-49.129-8.2103-12.077-6.1213-19.38-12.828-23.947-21.993-7.5319-15.115-6.656-34.148 14.148-307.44 20.457-268.72 18.222-249.85 31.201-263.43 3.3534-3.5091 9.0918-7.9895 12.752-9.9565l6.6551-3.5763 244.57-1.145c134.51-0.62976 244.8-0.90617 245.1-0.61424 0.2919 0.29192 9.2187 116.47 19.837 258.17 14.913 199.02 19.022 260.57 18.056 270.52l-1.2502 12.874-268.14 0.43574-268.14 0.43575-7.8937 4.6401c-9.2689 5.4485-12.904 11.547-12.904 21.652 0 10.403 5.2618 17.518 17.47 23.622 9.2413 4.6207 11.558 5.0346 31.196 5.5744l21.213 0.58304v-14.309-14.309h41.595 41.595v49.913c0 27.452-0.56153 49.883-1.2478 49.845-0.68631-0.0376-4.32-2.8452-8.0749-6.2392zm315.48-340.61c10.569-5.4654 10.529-4.8791 5.6848-82.732-3.14-50.467-5.0384-71.503-6.7521-74.817-5.0492-9.764 5.1202-9.186-183.97-10.458-124.87-0.83993-175.73-0.6546-179.7 0.65482-3.0436 1.0045-6.5545 3.4608-7.8022 5.4586-1.6715 2.6764-3.189 23.06-5.7668 77.462-3.8289 80.805-3.8807 80.021 5.6164 84.827 3.2114 1.625 43.842 2.0846 185.96 2.1038 159.33 0.0215 182.46-0.2881 186.73-2.4993z" stroke-width="4" fill="#E74C3C"/>
  <path id="fill2" fill="#E74C3C" d="m874.76 809.49v-9.4169l183.18 0.98834c100.75 0.54358 183.41 1.2249 183.7 1.514 0.2822 0.2891 0.1094 4.082-0.384 8.4286l-0.8971 7.903h-182.8-182.8v-9.4169z"/>
 </g>
 <g stroke-width="6" stroke="#CDD0D8" fill="none">
  <g id="text1" transform="matrix(1.3642 .014185 -.014185 1.3642 592.66 114.17)">
   <path id="text1" d="m227.19 268-63.604-28.275v-6.8344l63.604-28.275v9.9209l-50.156 21.771 50.156 21.771v9.9209z"/>
  </g>
  <g id="text2" transform="matrix(1.2319 .012809 -.012809 1.2319 500.12 17.504)">
   <path id="text2" d="m400.22 284.06-43.762 113.53h-10.559l43.579-113.53h10.742z"/>
  </g>
  <g id="text3" transform="matrix(-1.2319 -.012809 -.012809 1.2319 1295.5 153.51)">
   <path id="text3" d="m215.71 269.51-70.435-31.311v-7.5684l70.435-31.311v10.986l-55.542 24.109 55.542 24.109v10.986z"/>
  </g>
 </g>
</svg>
